<?xml version="1.0" encoding="UTF-8"?>
<svg width="413px" height="49px" viewBox="0 0 413 49" version="1.1" xmlns="http://www.w3.org/2000/svg" xmlns:xlink="http://www.w3.org/1999/xlink">
    <!-- Generator: Sketch 52.6 (67491) - http://www.bohemiancoding.com/sketch -->
    <title>HYPERDRVN</title>
    <desc>Created with Sketch.</desc>
    <g id="Page-1" stroke="none" stroke-width="1" fill="none" fill-rule="evenodd">
        <g id="Group-3" transform="translate(-69.000000, -228.000000)" fill="#DFFF00">
            <path d="M102.552,228 L119.976,228 L114.072,276.024 L96.648,276.024 L98.808,258.528 L88.512,258.528 L86.424,276.024 L69,276.024 L74.904,228 L92.328,228 L90.312,244.416 L100.536,244.416 L102.552,228 Z M170.152,228 L149.92,255.648 L147.4,276.024 L130.12,276.024 L132.712,255.216 L119.896,228 L138.976,228 L141.424,235.848 C142,237.648 142.216,238.872 142.36,241.32 L143.008,241.32 C143.44,239.736 143.944,238.44 144.736,236.784 L149.2,228 L170.152,228 Z M190.016,261.408 L183.392,261.408 L181.592,276.024 L164.168,276.024 L170.072,228 L190.088,228 C196.64,228 200.6,229.08 203.912,231.672 C207.728,234.696 209.96,239.376 209.96,244.416 C209.96,248.952 208.016,253.632 204.92,256.656 C201.392,260.04 197.144,261.408 190.016,261.408 Z M187.712,240.528 L185.912,240.528 L184.832,249.456 L186.416,249.456 C190.808,249.456 193.04,247.728 193.04,244.344 C193.04,241.536 191.672,240.528 187.712,240.528 Z M213.552,228 L245.088,228 L243.576,240.528 L229.392,240.528 L228.744,245.784 L241.704,245.784 L240.264,257.664 L227.304,257.664 L226.656,263.136 L241.344,263.136 L239.76,276.024 L207.648,276.024 L213.552,228 Z M283.672,254.424 C281.512,256.152 280.144,256.728 276.544,257.232 L286.984,276.024 L268.12,276.024 L263.8,264.432 C263.08,262.416 262.288,259.824 261.928,258.024 L261.424,258.096 C261.496,259.68 261.496,260.328 261.496,261.624 C261.496,263.784 261.352,266.16 261.136,267.96 L260.2,276.024 L242.776,276.024 L248.68,228 L267.76,228 C275.608,228 279.28,229.008 282.88,231.888 C286.408,234.84 288.496,239.304 288.496,243.84 C288.496,248.016 286.696,251.976 283.672,254.424 Z M265.888,240.888 L264.52,240.888 L263.44,249.528 L264.88,249.528 C268.912,249.528 271.432,247.656 271.432,244.776 C271.432,242.112 269.704,240.888 265.888,240.888 Z M288.848,276.024 L294.752,228 L311.024,228 C327.944,228 338.024,236.712 338.024,251.256 C338.024,258.888 334.856,265.728 329.24,270.192 C323.912,274.44 318.152,276.024 308.072,276.024 L288.848,276.024 Z M312.536,242.112 L310.376,242.112 L308,261.768 L310.448,261.768 C316.208,261.768 320.816,256.944 320.816,250.824 C320.816,245.784 317.288,242.112 312.536,242.112 Z M378.911999,254.424 C376.751999,256.152 375.383999,256.728 371.783999,257.232 L382.223999,276.024 L363.359999,276.024 L359.039999,264.432 C358.319999,262.416 357.527999,259.824 357.167999,258.024 L356.663999,258.096 C356.735999,259.68 356.735999,260.328 356.735999,261.624 C356.735999,263.784 356.591999,266.16 356.375999,267.96 L355.439999,276.024 L338.015999,276.024 L343.919999,228 L362.999999,228 C370.847999,228 374.519999,229.008 378.119999,231.888 C381.647999,234.84 383.735999,239.304 383.735999,243.84 C383.735999,248.016 381.935999,251.976 378.911999,254.424 Z M361.127999,240.888 L359.759999,240.888 L358.679999,249.528 L360.119999,249.528 C364.151999,249.528 366.671999,247.656 366.671999,244.776 C366.671999,242.112 364.943999,240.888 361.127999,240.888 Z M412.743999,228 L432.471999,228 L408.423999,276.024 L393.303999,276.024 L382.503999,228 L400.719999,228 L402.591999,243.12 C402.879999,245.352 403.023999,247.728 403.023999,250.248 C403.023999,252.336 402.951999,253.848 402.735999,256.656 L403.455999,256.728 C404.175999,250.68 405.327999,246.072 407.199999,241.536 L412.743999,228 Z M464.071999,228 L481.711999,228 L475.807999,276.024 L458.959999,276.024 L450.607999,259.464 C448.879999,255.936 447.799999,253.2 446.791999,249.744 L446.503999,248.88 L445.927999,248.88 C446.143999,251.04 446.215999,252.624 446.215999,254.64 C446.215999,256.512 446.143999,258.24 445.999999,259.464 L444.487999,276.024 L426.991999,276.024 L432.895999,228 L450.391999,228 L458.887999,246.072 C459.967999,248.376 460.759999,250.464 461.911999,254.568 L462.343999,256.152 L463.063999,256.08 L462.919999,254.496 C462.703999,251.832 462.559999,249.888 462.559999,247.872 C462.559999,245.928 462.631999,244.056 462.847999,242.184 L464.071999,228 Z" id="HYPERDRVN"></path>
        </g>
    </g>
</svg>